<?xml version="1.0" encoding="utf-8"?>
<!-- Generator: Adobe Illustrator 16.0.0, SVG Export Plug-In . SVG Version: 6.00 Build 0)  -->
<!DOCTYPE svg PUBLIC "-//W3C//DTD SVG 1.1//EN" "http://www.w3.org/Graphics/SVG/1.1/DTD/svg11.dtd">
<svg version="1.1" id="Layer_1" xmlns="http://www.w3.org/2000/svg" xmlns:xlink="http://www.w3.org/1999/xlink" x="0px" y="0px"
	 width="183px" height="244px" viewBox="-105.417 -3.5 183 244" enable-background="new -105.417 -3.5 183 244"
	 xml:space="preserve">
<g>
	<path fill="#E6E6E6" d="M-74.852,177.289c-15.577,0-28.25-12.672-28.25-28.25c0-15.577,12.673-28.25,28.25-28.25
		s28.25,12.673,28.25,28.25C-46.602,164.617-59.274,177.289-74.852,177.289L-74.852,177.289z"/>
	<path fill="#4D4D4D" d="M-74.852,122.289c14.772,0,26.75,11.977,26.75,26.75s-11.978,26.75-26.75,26.75
		c-14.773,0-26.75-11.977-26.75-26.75S-89.625,122.289-74.852,122.289 M-74.852,119.289c-16.404,0-29.75,13.346-29.75,29.75
		s13.346,29.75,29.75,29.75c16.403,0,29.75-13.346,29.75-29.75S-58.448,119.289-74.852,119.289L-74.852,119.289z"/>
</g>
<g>
	<path fill="#E6E6E6" d="M-13.916,177.289c-15.577,0-28.25-12.672-28.25-28.25c0-15.577,12.673-28.25,28.25-28.25
		s28.25,12.673,28.25,28.25C14.334,164.617,1.661,177.289-13.916,177.289L-13.916,177.289z"/>
	<path fill="#4D4D4D" d="M-13.916,122.289c14.772,0,26.75,11.977,26.75,26.75s-11.978,26.75-26.75,26.75s-26.75-11.977-26.75-26.75
		S-28.689,122.289-13.916,122.289 M-13.916,119.289c-16.403,0-29.75,13.346-29.75,29.75s13.347,29.75,29.75,29.75
		c16.405,0,29.75-13.346,29.75-29.75S2.488,119.289-13.916,119.289L-13.916,119.289z"/>
</g>
<g>
	<path fill="#E6E6E6" d="M47.019,177.289c-15.576,0-28.25-12.672-28.25-28.25c0-15.577,12.674-28.25,28.25-28.25
		c15.578,0,28.25,12.673,28.25,28.25C75.269,164.617,62.597,177.289,47.019,177.289L47.019,177.289z"/>
	<path fill="#4D4D4D" d="M47.019,122.289c14.773,0,26.75,11.977,26.75,26.75s-11.977,26.75-26.75,26.75
		c-14.771,0-26.75-11.977-26.75-26.75S32.249,122.289,47.019,122.289 M47.019,119.289c-16.401,0-29.75,13.346-29.75,29.75
		s13.349,29.75,29.75,29.75c16.404,0,29.75-13.346,29.75-29.75S63.423,119.289,47.019,119.289L47.019,119.289z"/>
</g>
<g>
	<path fill="#E6E6E6" d="M-13.916,237.98c-15.577,0-28.25-12.672-28.25-28.25c0-15.576,12.673-28.25,28.25-28.25
		s28.25,12.674,28.25,28.25C14.334,225.309,1.661,237.98-13.916,237.98L-13.916,237.98z"/>
	<path fill="#4D4D4D" d="M-13.916,182.98c14.772,0,26.75,11.979,26.75,26.75c0,14.772-11.978,26.75-26.75,26.75
		s-26.75-11.978-26.75-26.75C-40.666,194.959-28.689,182.98-13.916,182.98 M-13.916,179.98c-16.403,0-29.75,13.348-29.75,29.75
		c0,16.403,13.347,29.75,29.75,29.75c16.405,0,29.75-13.347,29.75-29.75C15.834,193.328,2.488,179.98-13.916,179.98L-13.916,179.98z
		"/>
</g>
<g>
	<path fill="#E6E6E6" d="M47.019,237.98c-15.576,0-28.25-12.672-28.25-28.25c0-15.576,12.674-28.25,28.25-28.25
		c15.578,0,28.25,12.674,28.25,28.25C75.269,225.309,62.597,237.98,47.019,237.98L47.019,237.98z"/>
	<path fill="#4D4D4D" d="M47.019,182.98c14.773,0,26.75,11.979,26.75,26.75c0,14.772-11.977,26.75-26.75,26.75
		c-14.771,0-26.75-11.978-26.75-26.75C20.269,194.959,32.249,182.98,47.019,182.98 M47.019,179.98
		c-16.401,0-29.75,13.348-29.75,29.75c0,16.403,13.349,29.75,29.75,29.75c16.404,0,29.75-13.347,29.75-29.75
		C76.769,193.328,63.423,179.98,47.019,179.98L47.019,179.98z"/>
</g>
<g>
	<path fill="#E6E6E6" d="M-74.852,237.98c-15.577,0-28.25-12.672-28.25-28.25c0-15.576,12.673-28.25,28.25-28.25
		s28.25,12.674,28.25,28.25C-46.602,225.309-59.274,237.98-74.852,237.98L-74.852,237.98z"/>
	<path fill="#4D4D4D" d="M-74.852,182.98c14.772,0,26.75,11.979,26.75,26.75c0,14.772-11.978,26.75-26.75,26.75
		c-14.773,0-26.75-11.978-26.75-26.75C-101.602,194.959-89.625,182.98-74.852,182.98 M-74.852,179.98
		c-16.404,0-29.75,13.348-29.75,29.75c0,16.403,13.346,29.75,29.75,29.75c16.403,0,29.75-13.347,29.75-29.75
		C-45.102,193.328-58.448,179.98-74.852,179.98L-74.852,179.98z"/>
</g>
<g>
	<g>
		<rect x="-87.389" y="22.463" transform="matrix(0.834 -0.5518 0.5518 0.834 -32.8876 -39.9827)" width="9.001" height="24.399"/>
		<rect x="-80.23" y="45.49" transform="matrix(0.834 -0.5517 0.5517 0.834 -38.1527 -33.6466)" width="10.461" height="2.199"/>
		<path d="M-95.601,15.454c-3.097,2.048,1.652,10.652,1.652,10.652l7.507-4.967C-86.441,21.14-92.503,13.404-95.601,15.454z"/>
	</g>
	<g>
		<rect x="-74.976" y="21.626" transform="matrix(0.834 -0.5517 0.5517 0.834 -30.3586 -33.2695)" width="8.997" height="24.397"/>
		<rect x="-67.819" y="44.655" transform="matrix(0.834 -0.5518 0.5518 0.834 -35.6376 -26.9392)" width="10.461" height="2.2"/>
		<path d="M-83.188,14.618c-3.097,2.047,1.652,10.652,1.652,10.652l7.507-4.966C-74.029,20.305-80.09,12.568-83.188,14.618z"/>
	</g>
	<g>
		<rect x="-69.018" y="10.317" transform="matrix(0.834 -0.5517 0.5517 0.834 -23.1291 -31.8574)" width="8.999" height="24.399"/>
		<rect x="-61.854" y="33.346" transform="matrix(0.834 -0.5518 0.5518 0.834 -28.4071 -25.5254)" width="10.461" height="2.199"/>
		<path d="M-77.224,3.311c-3.096,2.048,1.653,10.651,1.653,10.651l7.506-4.966C-68.064,8.996-74.126,1.262-77.224,3.311z"/>
	</g>
	<g>
		<path d="M-74.852,0.52c14.772,0,26.75,11.977,26.75,26.75c0,14.772-11.978,26.75-26.75,26.75c-14.773,0-26.75-11.978-26.75-26.75
			C-101.602,12.496-89.626,0.52-74.852,0.52 M-74.852-2.48c-16.404,0-29.75,13.346-29.75,29.75c0,16.403,13.346,29.75,29.75,29.75
			c16.403,0,29.75-13.347,29.75-29.75C-45.102,10.865-58.449-2.48-74.852-2.48L-74.852-2.48z"/>
	</g>
</g>
<g>
	<g>
		<path d="M-9.643,22.997l12.881,2.122c-0.973-7.832-7.17-14.03-15.002-15.004L-9.643,22.997z"/>
		<path d="M-18.189,22.997l2.122-12.882c-7.833,0.973-14.031,7.171-15.004,15.004L-18.189,22.997z"/>
		<path d="M-18.189,31.544l-12.882-2.123c0.974,7.832,7.171,14.03,15.003,15.003L-18.189,31.544z"/>
		<path d="M-9.643,31.544l-2.121,12.881c7.832-0.974,14.029-7.171,15.002-15.003L-9.643,31.544z"/>
	</g>
	<g>
		<path d="M-13.917,0.52c14.773,0,26.749,11.977,26.749,26.75c0,14.772-11.976,26.75-26.749,26.75
			c-14.772,0-26.75-11.978-26.75-26.75C-40.667,12.496-28.689,0.52-13.917,0.52 M-13.917-2.48c-16.403,0-29.75,13.346-29.75,29.75
			c0,16.403,13.347,29.75,29.75,29.75c16.404,0,29.749-13.347,29.749-29.75C15.833,10.865,2.488-2.48-13.917-2.48L-13.917-2.48z"/>
	</g>
</g>
<g>
	<polygon points="53.353,18.463 67.921,20.305 57.601,30.748 60.353,45.175 47.228,38.585 34.359,45.663 36.57,31.144 25.865,21.09 
		40.355,18.706 46.607,5.417 	"/>
	<g>
		<path d="M47.019,0.52c14.773,0,26.75,11.977,26.75,26.75c0,14.772-11.977,26.75-26.75,26.75c-14.772,0-26.75-11.978-26.75-26.75
			C20.269,12.496,32.247,0.52,47.019,0.52 M47.019-2.48c-16.404,0-29.75,13.346-29.75,29.75c0,16.403,13.346,29.75,29.75,29.75
			s29.75-13.347,29.75-29.75C76.769,10.865,63.425-2.48,47.019-2.48L47.019-2.48z"/>
	</g>
</g>
<g>
	<g>
		<path d="M-13.917,61.211c14.773,0,26.749,11.978,26.749,26.75c0,14.773-11.976,26.75-26.749,26.75
			c-14.772,0-26.75-11.977-26.75-26.75C-40.667,73.188-28.689,61.211-13.917,61.211 M-13.917,58.211
			c-16.403,0-29.75,13.347-29.75,29.75c0,16.404,13.347,29.75,29.75,29.75c16.404,0,29.749-13.346,29.749-29.75
			C15.833,71.559,2.488,58.211-13.917,58.211L-13.917,58.211z"/>
	</g>
	<path d="M-28.458,70.312l6.328,6.329c0.699,0.698,0.699,1.833,0,2.531l-2.848,2.849c-0.699,0.699-1.832,0.699-2.531,0l-6.329-6.329
		c-1.348,2.46-0.98,5.61,1.104,7.694l2.806,2.806c1.957,1.957,4.854,2.398,7.237,1.33l12.569,12.57
		c-0.03,1.005,0.332,2.021,1.099,2.785l2.426,2.427c1.471,1.471,3.854,1.471,5.328,0l2.426-2.427c1.471-1.471,1.471-3.855,0-5.327
		l-2.426-2.426c-0.769-0.767-1.781-1.129-2.787-1.097l-12.57-12.571c1.069-2.383,0.627-5.279-1.33-7.236l-2.806-2.807
		C-22.848,69.33-25.999,68.963-28.458,70.312z M-1.827,102.324c-0.99,0.99-2.595,0.99-3.585,0c-0.989-0.99-0.989-2.596,0-3.586
		c0.99-0.99,2.597-0.99,3.585,0C-0.835,99.728-0.835,101.333-1.827,102.324z"/>
	<g>
		<rect x="-18.193" y="85.946" transform="matrix(-0.707 -0.7072 0.7072 -0.707 -87.5459 144.2)" width="8.577" height="8.576"/>
		<path d="M-21.394,91.647l-2.38,2.38c-1.004-0.032-2.02,0.331-2.785,1.097l-2.426,2.426c-1.472,1.472-1.472,3.855,0,5.326
			l2.426,2.427c1.471,1.471,3.854,1.471,5.326,0l2.426-2.427c0.767-0.766,1.13-1.78,1.098-2.785l2.38-2.38L-21.394,91.647z
			 M-22.419,102.325c-0.99,0.99-2.596,0.99-3.586,0c-0.99-0.991-0.99-2.596,0-3.586s2.596-0.99,3.586,0
			C-21.429,99.729-21.429,101.333-22.419,102.325z"/>
		<path d="M6.005,75.69l-6.328,6.329c-0.699,0.699-1.834,0.699-2.533,0l-2.848-2.849c-0.699-0.698-0.699-1.833,0-2.531l6.328-6.329
			c-2.461-1.349-5.609-0.982-7.693,1.102l-2.807,2.807c-1.957,1.956-2.398,4.854-1.33,7.236l-1.297,1.298l6.063,6.064l1.297-1.297
			c2.387,1.068,5.283,0.627,7.24-1.33l2.805-2.807C6.986,81.303,7.353,78.151,6.005,75.69z"/>
	</g>
</g>
<g>
	<g>
		<path d="M47.019,61.211c14.773,0,26.75,11.978,26.75,26.75c0,14.773-11.977,26.75-26.75,26.75c-14.772,0-26.75-11.977-26.75-26.75
			C20.269,73.188,32.247,61.211,47.019,61.211 M47.019,58.211c-16.404,0-29.75,13.347-29.75,29.75
			c0,16.404,13.346,29.75,29.75,29.75s29.75-13.346,29.75-29.75C76.769,71.559,63.425,58.211,47.019,58.211L47.019,58.211z"/>
	</g>
	<g>
		<path d="M46.786,64.44L34.909,87.757l10.901,2.672l-11.934,18.307l30.043-22.739l-13.525-3.121l12.193-12.651
			C58.224,66.754,52.751,64.622,46.786,64.44z"/>
	</g>
</g>
<g>
	<path d="M-70.92,84.746c-1.735-0.625-4.642-1.384-5.589-3.185c-1.036-1.972,1.196-3.369,2.862-3.571
		c2.844,0.246,5.257,1.465,7.763,2.702c0.398-2.199,1.062-4.348,1.636-6.507c-1.68-0.769-3.84-1.488-7.009-1.584v-4.226
		c-2.364,0-4.729,0-7.094,0v4.562c-3.188,0.596-6.302,2.35-7.547,5.487c-1.173,2.958-0.526,6.38,1.828,8.548
		c1.227,1.13,2.734,1.92,4.266,2.556c1.813,0.754,3.801,1.187,5.46,2.276c1,0.654,1.754,1.613,1.648,2.865
		c-0.151,1.779-2.038,2.508-3.572,2.686c-3.225-0.286-5.96-1.688-8.771-3.148c-0.555,2.243-1.139,4.479-1.713,6.717
		c1.824,1.009,4.944,1.921,8.161,2.064v4.56c2.381,0,4.762,0,7.143,0v-4.943c4.537-0.75,8.497-3.954,8.497-8.833
		c0-1.972-0.523-3.892-1.843-5.396C-66.378,86.567-68.7,85.53-70.92,84.746"/>
	<g>
		<path d="M-74.852,61.211c14.772,0,26.75,11.978,26.75,26.75c0,14.773-11.978,26.75-26.75,26.75
			c-14.773,0-26.75-11.977-26.75-26.75C-101.602,73.188-89.626,61.211-74.852,61.211 M-74.852,58.211
			c-16.404,0-29.75,13.347-29.75,29.75c0,16.404,13.346,29.75,29.75,29.75c16.403,0,29.75-13.346,29.75-29.75
			C-45.102,71.559-58.449,58.211-74.852,58.211L-74.852,58.211z"/>
	</g>
</g>
<rect x="-87.382" y="144.241" transform="matrix(0.834 -0.5517 0.5517 0.834 -100.0714 -19.7633)" fill="#F7931E" width="8.998" height="24.397"/>
<rect x="-80.234" y="167.269" transform="matrix(0.8339 -0.5519 0.5519 0.8339 -105.3704 -13.4316)" fill="#808080" width="10.462" height="2.201"/>
<path fill="#808080" d="M-95.6,137.223c-3.096,2.049,1.652,10.652,1.652,10.652l7.507-4.967
	C-86.44,142.908-92.502,135.174-95.6,137.223z"/>
<rect x="-74.972" y="143.394" transform="matrix(0.834 -0.5517 0.5517 0.834 -97.5442 -13.057)" fill="#F7931E" width="8.998" height="24.396"/>
<rect x="-67.81" y="166.43" transform="matrix(0.834 -0.5517 0.5517 0.834 -102.8164 -6.7213)" fill="#808080" width="10.461" height="2.199"/>
<path fill="#808080" d="M-83.188,136.387c-3.098,2.049,1.651,10.652,1.651,10.652l7.506-4.965
	C-74.028,142.074-80.09,134.338-83.188,136.387z"/>
<rect x="-69.01" y="132.087" transform="matrix(0.834 -0.5517 0.5517 0.834 -90.3118 -11.645)" fill="#F7931E" width="8.997" height="24.398"/>
<rect x="-61.844" y="155.12" transform="matrix(0.834 -0.5517 0.5517 0.834 -95.5865 -5.3069)" fill="#808080" width="10.461" height="2.199"/>
<path fill="#808080" d="M-77.224,125.08c-3.096,2.048,1.653,10.65,1.653,10.65l7.506-4.963
	C-68.064,130.766-74.125,123.031-77.224,125.08z"/>
<g>
	<path fill="#9E005D" d="M-9.641,144.766l12.879,2.123c-0.975-7.832-7.17-14.031-15.002-15.004L-9.641,144.766z"/>
	<path fill="#9E005D" d="M-18.189,144.766l2.122-12.881c-7.833,0.975-14.031,7.17-15.004,15.004L-18.189,144.766z"/>
	<path fill="#9E005D" d="M-18.189,153.314l-12.882-2.123c0.974,7.832,7.171,14.029,15.003,15.004L-18.189,153.314z"/>
	<path fill="#9E005D" d="M-9.641,153.314l-2.123,12.881c7.832-0.975,14.029-7.172,15.002-15.004L-9.641,153.314z"/>
</g>
<polygon fill="#F7931E" points="53.353,140.232 67.923,142.074 57.599,152.518 60.353,166.945 47.228,160.355 34.359,167.432 
	36.572,152.914 25.865,142.859 40.355,140.477 46.607,127.188 "/>
<g>
	
		<rect x="-18.203" y="207.715" transform="matrix(-0.7072 -0.707 0.707 -0.7072 -173.6517 352.0871)" fill="#4D4D4D" width="8.577" height="8.577"/>
	<path fill="#4D4D4D" d="M-21.394,213.418l-2.38,2.379c-1.004-0.031-2.02,0.332-2.785,1.098l-2.426,2.427
		c-1.472,1.471-1.472,3.854,0,5.325l2.426,2.427c1.471,1.471,3.854,1.471,5.326,0l2.426-2.427c0.767-0.766,1.13-1.78,1.098-2.784
		l2.38-2.382L-21.394,213.418z M-22.419,224.094c-0.99,0.99-2.596,0.99-3.586,0s-0.99-2.596,0-3.586s2.596-0.99,3.586,0
		C-21.43,221.498-21.43,223.104-22.419,224.094z"/>
	<path fill="#4D4D4D" d="M6.005,197.461l-6.326,6.328c-0.699,0.699-1.835,0.699-2.533,0l-2.849-2.848
		c-0.698-0.699-0.698-1.834,0-2.531l6.33-6.33c-2.461-1.348-5.61-0.982-7.694,1.102l-2.807,2.808
		c-1.957,1.957-2.398,4.854-1.33,7.235l-1.298,1.299l6.063,6.064l1.297-1.297c2.386,1.068,5.281,0.627,7.238-1.33l2.805-2.807
		C6.986,203.072,7.353,199.922,6.005,197.461z"/>
</g>
<g>
	<path fill="#FBB03B" d="M46.788,186.211l-11.879,23.316l10.901,2.672l-11.934,18.307l30.043-22.74l-13.525-3.121l12.195-12.649
		C58.222,188.523,52.751,186.393,46.788,186.211z"/>
</g>
<path fill="#006837" d="M-70.92,206.516c-1.735-0.625-4.642-1.385-5.589-3.186c-1.036-1.971,1.196-3.369,2.862-3.57
	c2.844,0.246,5.257,1.465,7.763,2.701c0.398-2.199,1.062-4.348,1.636-6.506c-1.68-0.77-3.84-1.488-7.009-1.584v-4.227
	c-2.364,0-4.729,0-7.094,0v4.563c-3.188,0.596-6.302,2.35-7.547,5.488c-1.173,2.957-0.526,6.379,1.828,8.547
	c1.227,1.129,2.734,1.92,4.266,2.555c1.813,0.754,3.801,1.188,5.46,2.277c1,0.654,1.754,1.613,1.648,2.865
	c-0.151,1.779-2.038,2.508-3.572,2.686c-3.225-0.287-5.96-1.688-8.771-3.148c-0.555,2.242-1.139,4.479-1.713,6.718
	c1.824,1.008,4.944,1.92,8.161,2.063v4.559c2.381,0,4.762,0,7.143,0v-4.942c4.537-0.75,8.497-3.953,8.497-8.832
	c0-1.973-0.523-3.894-1.843-5.396C-66.378,208.338-68.699,207.299-70.92,206.516"/>
<path fill="#999999" d="M-28.458,192.082l6.328,6.328c0.699,0.699,0.699,1.834,0,2.531l-2.848,2.85
	c-0.699,0.699-1.832,0.699-2.531,0l-6.329-6.33c-1.348,2.461-0.98,5.611,1.104,7.695l2.806,2.805c1.957,1.957,4.854,2.4,7.237,1.33
	l12.57,12.572c-0.032,1.004,0.331,2.018,1.099,2.783l2.424,2.428c1.473,1.471,3.855,1.471,5.328,0l2.426-2.428
	c1.473-1.471,1.473-3.855,0-5.326l-2.426-2.426c-0.768-0.769-1.779-1.129-2.785-1.099l-12.57-12.569
	c1.069-2.383,0.627-5.279-1.33-7.236l-2.806-2.807C-22.848,191.1-25.998,190.732-28.458,192.082z M-1.826,224.094
	c-0.989,0.99-2.596,0.99-3.586,0c-0.989-0.99-0.989-2.596,0-3.586c0.99-0.99,2.597-0.99,3.586,0
	C-0.835,221.498-0.834,223.104-1.826,224.094z"/>
</svg>
